# xmcd
#
# Track frame offsets:
#	150
#	14462
#	25727
#	38622
#	55780
#	73017
#	87185
#	105375
#	118632
#	131940
#	148947
#	161347
#
# Disc length: 2338 seconds
#
# Revision: 0
# Processed by: cddbd v1.4PL0 Copyright (c) Steve Scherf et al.
# Submitted via: dBpowerAMP V4.0
#
DISCID=9c09200c
DTITLE=SLim Dusty - G'day G'day
DYEAR=1988
DGENRE=Country
TTITLE0=G'Day G'Day
TTITLE1=Good Old Feed Of Flathead
TTITLE2=Christmas, When I Was As Big As You
TTITLE3=A Girl From The Land
TTITLE4=I Can Still Hear Dad Swearing
TTITLE5=Breakaway
TTITLE6=Hows Your Memory
TTITLE7=Sitting On The Old Front Verandah
TTITLE8=The Johnsonville Dance
TTITLE9=Bloody Bonzer Mate 
TTITLE10=The Boss
TTITLE11=Up The Old Nulla Road
EXTD=
EXTT0=
EXTT1=
EXTT2=
EXTT3=
EXTT4=
EXTT5=
EXTT6=
EXTT7=
EXTT8=
EXTT9=
EXTT10=
EXTT11=
PLAYORDER=
